<?xml version="1.0" encoding="UTF-8" standalone="no"?>
<svg width="50px" height="50px" viewBox="0 0 50 50" version="1.1" xmlns="http://www.w3.org/2000/svg" xmlns:xlink="http://www.w3.org/1999/xlink" xmlns:sketch="http://www.bohemiancoding.com/sketch/ns">
    <!-- Generator: Sketch 3.4.4 (17249) - http://www.bohemiancoding.com/sketch -->
    <title>icon_linkedin</title>
    <desc>Created with Sketch.</desc>
    <defs></defs>
    <g id="Page-1" stroke="none" stroke-width="1" fill="none" fill-rule="evenodd" sketch:type="MSPage">
        <g id="icon_linkedin" sketch:type="MSArtboardGroup" fill="#000000">
            <path d="M46.2974487,0 L3.70255134,0 C1.68014935,0 0,1.61792159 0,3.60920971 L0,46.3907903 C0,48.3820784 1.64903547,50 3.70255134,50 L46.2974487,50 C48.3509645,50 50,48.3820784 50,46.3907903 L50,3.57809583 C50,1.58680772 48.3509645,0 46.2974487,0 L46.2974487,0 Z M14.8413192,42.5948973 L7.43621655,42.5948973 L7.43621655,18.7305538 L14.8413192,18.7305538 L14.8413192,42.5948973 L14.8413192,42.5948973 Z M11.1387679,15.4635968 C8.77411325,15.4635968 6.84505289,13.5345364 6.84505289,11.1698818 C6.84505289,8.80522713 8.77411325,6.87616677 11.1387679,6.87616677 C13.5034225,6.87616677 15.4324829,8.80522713 15.4324829,11.1698818 C15.4324829,13.5345364 13.5034225,15.4635968 11.1387679,15.4635968 L11.1387679,15.4635968 Z M42.6260112,42.5948973 L35.2209085,42.5948973 L35.2209085,30.9894213 C35.2209085,28.2202862 35.1586808,24.6733043 31.3627878,24.6733043 C27.5046671,24.6733043 26.9135034,27.6913503 26.9135034,30.802738 L26.9135034,42.5948973 L19.5084007,42.5948973 L19.5084007,18.7305538 L26.6334785,18.7305538 L26.6334785,21.9975109 L26.7268202,21.9975109 C27.7224642,20.1306783 30.1493466,18.1393902 33.7274424,18.1393902 C41.2258867,18.1393902 42.6260112,23.0864966 42.6260112,29.4959552 L42.6260112,42.5948973 L42.6260112,42.5948973 Z" id="Shape" sketch:type="MSShapeGroup"></path>
        </g>
    </g>
</svg>