<?xml version="1.0" encoding="UTF-8" standalone="no"?>
<svg width="50px" height="50px" viewBox="0 0 50 50" version="1.1" xmlns="http://www.w3.org/2000/svg" xmlns:xlink="http://www.w3.org/1999/xlink" xmlns:sketch="http://www.bohemiancoding.com/sketch/ns">
    <!-- Generator: Sketch 3.4.4 (17249) - http://www.bohemiancoding.com/sketch -->
    <title>icon_facebook</title>
    <desc>Created with Sketch.</desc>
    <defs></defs>
    <g id="Page-1" stroke="none" stroke-width="1" fill="none" fill-rule="evenodd" sketch:type="MSPage">
        <path d="M47.299509,0.0308641975 L2.75140935,0.0308641975 C1.26750318,0.0308641975 0,1.2654321 0,2.77777778 L0,47.2530864 C0,48.7345679 1.23658847,50 2.75140935,50 L26.7721404,50 L26.7721404,30.7716049 L20.2491362,30.7716049 L20.2491362,23.2716049 L26.7721404,23.2716049 L26.7721404,17.5308642 C26.7721404,11.0185185 30.7601382,7.5308642 36.5411893,7.5308642 C39.2925987,7.5308642 41.7966903,7.77777778 42.2913257,7.77777778 L42.2913257,14.537037 L38.3033279,14.537037 C35.0572831,14.537037 34.5626478,16.0185185 34.5626478,18.2716049 L34.5626478,23.0246914 L42.044008,23.0246914 L41.0238225,30.5246914 L34.5008183,30.5246914 L34.5008183,49.7530864 L47.299509,49.7530864 C48.7834152,49.7530864 50.0509183,48.5185185 50.0509183,47.0061728 L50.0509183,2.77777778 C50.0509183,1.2654321 48.8143299,0.0308641975 47.299509,0.0308641975 L47.299509,0.0308641975 Z" id="Shape" fill="#000000" sketch:type="MSShapeGroup"></path>
        <g id="icon_facebook" sketch:type="MSArtboardGroup"></g>
    </g>
</svg>