<?xml version="1.0" encoding="utf-8"?>
<!-- Generator: Adobe Illustrator 17.1.0, SVG Export Plug-In . SVG Version: 6.00 Build 0)  -->
<!DOCTYPE svg PUBLIC "-//W3C//DTD SVG 1.1//EN" "http://www.w3.org/Graphics/SVG/1.1/DTD/svg11.dtd">
<svg version="1.1" id="Layer_1" xmlns="http://www.w3.org/2000/svg" xmlns:xlink="http://www.w3.org/1999/xlink" x="0px" y="0px"
	 viewBox="0 0 100 47.8" enable-background="new 0 0 100 47.8" xml:space="preserve">
<g>
	<g>
		<path fill-rule="evenodd" clip-rule="evenodd" fill="#000000" d="M42.1,21.3h-6.4v4h6.4V21.3z M46.7,13.1H35.8v4h10.9V13.1z
			 M25.9,19.9L25.9,19.9c0-4.3-2.9-6.8-7.7-6.8h-4.7v4.1h4.3c2.2,0,3.5,1,3.5,2.9v0.1c0,1.7-1.3,2.9-3.4,2.9h-4.4v4h3.3l4.4,6.5h5.3
			l-5-7.3C24.1,25.3,25.9,23.2,25.9,19.9z M63.9,18.8l2.3-3.4c-2.1-1.7-4.6-2.6-7.6-2.6c-0.5,0-1,0-1.4,0.1V17
			c0.4-0.1,0.8-0.2,1.4-0.2C60.3,16.8,62.1,17.6,63.9,18.8z M35.8,33.6h11v-4h-11V33.6z M76.5,13.1v20.4h4.4V17.3h6.2v-4.1H76.5z
			 M60.4,21.3c-1.5-0.4-2.5-0.7-3.1-1V25c0.3,0.1,0.7,0.2,1,0.3c3.4,0.9,4.1,1.5,4.1,2.6V28c0,1.2-1.1,1.9-2.9,1.9
			c-0.8,0-1.5-0.1-2.2-0.3v4.1c0.7,0.1,1.4,0.2,2.1,0.2c4.4,0,7.5-2.3,7.5-6.3v-0.1C66.9,23.9,64.5,22.4,60.4,21.3z"/>
	</g>
	<path fill="#000000" d="M95.2,4.8V43H4.8V4.8H95.2 M100,0h-4.8H4.8H0v4.8V43v4.8h4.8h90.4h4.8V43V4.8V0L100,0z"/>
</g>
</svg>
