<?xml version="1.0" encoding="utf-8"?>
<!-- Generator: Adobe Illustrator 17.1.0, SVG Export Plug-In . SVG Version: 6.00 Build 0)  -->
<!DOCTYPE svg PUBLIC "-//W3C//DTD SVG 1.1//EN" "http://www.w3.org/Graphics/SVG/1.1/DTD/svg11.dtd">
<svg version="1.1" id="Layer_1" xmlns="http://www.w3.org/2000/svg" xmlns:xlink="http://www.w3.org/1999/xlink" x="0px" y="0px"
	 viewBox="0 563.1 610.7 161.9" enable-background="new 0 563.1 610.7 161.9" xml:space="preserve">
<path d="M598.8,563.9H461.9c-6.5,0-11.9,5.2-11.9,11.6v137.5c0,6.4,5.3,11.6,11.9,11.6h136.9c6.6,0,11.9-5.2,11.9-11.6V575.4
	C610.7,569,605.4,563.9,598.8,563.9z M497.7,700.8h-23.8v-76.7h23.8V700.8z M485.8,613.6c-7.6,0-13.8-6.2-13.8-13.8
	c0-7.6,6.2-13.8,13.8-13.8c7.6,0,13.8,6.2,13.8,13.8C499.6,607.4,493.4,613.6,485.8,613.6z M587,700.8h-23.8v-37.3
	c0-8.9-0.2-20.3-12.4-20.3c-12.4,0-14.3,9.7-14.3,19.7v37.9h-23.8v-76.7h22.9v10.5h0.3c3.2-6,11-12.4,22.5-12.4
	c24.1,0,28.6,15.9,28.6,36.5V700.8z"/>
<path d="M379.8,601.1c-4.8,2.4-10.5,4-16.2,4.8c5.7-3.3,10.5-8.9,12.1-15.4c-5.7,3.3-11.4,5.7-17.8,6.5c-4.8-5.7-12.1-8.9-21.1-8.9
	c-15.4,0-28.3,12.9-28.3,28.3c0,2.4,0,4,0.8,6.5c-23.5-0.8-44.5-12.1-58.3-30c-2.4,4-4,8.9-4,14.6c0,9.7,4.8,18.6,12.9,23.5
	c-4.8,0-8.9-1.6-13-3.3l0,0c0,13.8,9.7,25.1,22.7,27.5c-2.4,0.8-4.8,0.8-7.3,0.8c-1.6,0-3.3,0-5.7-0.8c3.3,11.4,13.8,19.4,26.7,19.4
	c-9.7,7.3-21.9,12.1-34.8,12.1c-2.4,0-4.8,0-6.5,0c12.1,8.1,27.5,12.9,43.7,12.9c51.8,0,80.1-42.9,80.1-80.1c0-1.6,0-2.4,0-4
	C370.8,612.5,375.7,606.8,379.8,601.1"/>
<path d="M153,563.1H8.9c-4.8,0-8.9,4-8.9,8.9v144.1c0,4.8,4,8.9,8.9,8.9h77.7v-62.3H65.5v-24.3h21.1v-18.6
	c0-21.1,12.9-32.4,31.6-32.4c8.9,0,17,0.8,18.6,0.8v21.9h-12.9c-10.5,0-12.1,4.8-12.1,12.1v15.4H136l-3.3,24.3h-21.1v62.3H153
	c4.8,0,8.9-4,8.9-8.9V572C161.9,567.1,157.9,563.1,153,563.1z"/>
</svg>
