<?xml version="1.0" encoding="UTF-8" standalone="no"?>
<svg width="50px" height="50px" viewBox="0 0 50 50" version="1.1" xmlns="http://www.w3.org/2000/svg" xmlns:xlink="http://www.w3.org/1999/xlink" xmlns:sketch="http://www.bohemiancoding.com/sketch/ns">
    <!-- Generator: Sketch 3.4.4 (17249) - http://www.bohemiancoding.com/sketch -->
    <title>icon_twitter</title>
    <desc>Created with Sketch.</desc>
    <defs></defs>
    <g id="Page-1" stroke="none" stroke-width="1" fill="none" fill-rule="evenodd" sketch:type="MSPage">
        <g id="icon_twitter" sketch:type="MSArtboardGroup" fill="#000000">
            <g id="Path-+-Shape" sketch:type="MSLayerGroup">
                <path d="M46.2974487,0 L3.70255134,0 C1.68014935,0 0,1.61792159 0,3.60920971 L0,46.3907903 C0,48.3820784 1.64903547,50 3.70255134,50 L46.2974487,50 C48.3509645,50 50,48.3820784 50,46.3907903 L50,3.57809583 C50,1.58680772 48.3509645,0 46.2974487,0 Z M38.6499261,16.3331112 C40.0397664,15.5297816 41.2101582,14.1665556 41.6002888,12.5842397 C40.2104485,13.3875693 38.8206082,13.971809 37.2600858,14.1665556 C36.089694,12.7789863 34.3097231,12 32.1152384,12 C28.3602313,12 25.2148033,15.1402884 25.2148033,18.8891599 C25.2148033,19.4733996 25.2148033,19.8628927 25.4098686,20.4714758 C19.6798253,20.2767292 14.5593611,17.5259339 11.1944847,13.1684794 C10.6092888,14.1422123 10.2191581,15.335035 10.2191581,16.7226043 C10.2191581,19.0839064 11.38955,21.250462 13.3645862,22.4432848 C12.1941943,22.4432848 11.1944847,22.0537916 10.194775,21.6399552 C10.194775,24.9993335 12.5599418,27.7501288 15.729753,28.3343685 C15.1445571,28.529115 14.5593611,28.529115 13.9497821,28.529115 C13.5596515,28.529115 13.1451377,28.529115 12.5599418,28.3343685 C13.3645862,31.1095071 15.9248183,33.0569728 19.0702463,33.0569728 C16.7050795,34.8340352 13.7303336,36.0025146 10.5849056,36.0025146 L9,36.0025146 C11.9503627,37.9743236 15.7053698,39.1428031 19.6554422,39.1428031 C32.2859206,39.1428031 39.1863557,28.6995183 39.1863557,19.6438028 L39.1863557,18.67007 C40.4055138,17.9397704 41.6002888,16.5522011 42.5999985,15.1646317 C41.4296067,15.7488715 40.0397664,16.1383646 38.6499261,16.3331112 Z" id="Path" sketch:type="MSShapeGroup"></path>
            </g>
        </g>
    </g>
</svg>